<svg xmlns="http://www.w3.org/2000/svg" height="32" viewBox="0 0 32 32" width="32"><rect height="32" width="32" fill="none"/><path d="M32 23c0-3.9-2.5-7.2-6-8.5V4h-2V2h2V0h-23C2.9 0 2.3 0 1.6 0.4 0.8 0.7 0 1.6 0 3c0 0 0 0 0 0V30c0 2 2 2 2 2h21.1l0 0C28 32 32 27.9 32 23zM2.9 4C2.7 4 2.4 3.9 2.3 3.7 2.1 3.6 2 3.5 2 3c0-0.6 0.2-0.7 0.4-0.9 0.1-0.1 0.3-0.1 0.4-0.1C3 2 3 2 3 2h19V4h-19C3 4 3 4 2.9 4zM4 30V6h20v8.1C23.7 14 23.3 14 23 14c-2.1 0-4.1 0.8-5.7 2H6v2h9.5c-0.4 0.6-0.7 1.3-1 2H6v2h8.1c0 0.3-0.1 0.7-0.1 1 0 2.8 1.3 5.4 3.3 7H4zM23 30c-3.9 0-7-3.1-7-7 0-3.9 3.1-7 7-7 3.9 0 7 3.1 7 7C30 26.9 26.9 30 23 30zM22 12H6v2h16V12z"/><rect height="2" width="10" x="18" y="22"/></svg>